<svg xmlns="http://www.w3.org/2000/svg" width="110" height="40" viewBox="0 0 110 40"><path fill="#A6A6A6" d="M103.37 0H5.866c-.213.002-.422.005-.635.01-.46.016-.93.04-1.39.125-.46.082-.9.22-1.32.436-.41.22-.79.49-1.13.82-.33.34-.6.71-.81 1.13-.21.42-.35.86-.43 1.32-.08.46-.11.93-.12 1.4 0 .22-.01.42-.01.64v28.26c0 .21.01.43.01.64.02.47.04.94.13 1.39.08.48.22.91.44 1.33.21.41.49.8.82 1.12.336.34.71.62 1.13.83.42.22.855.35 1.32.44.46.08.93.11 1.396.12l.636.01c.25.01.5.01.76.01h98.14c.464-.01.933-.032 1.394-.112.46-.093.892-.22 1.32-.44.42-.21.794-.49 1.124-.824.324-.325.603-.716.814-1.12.22-.43.354-.86.436-1.33.084-.46.11-.92.125-1.39.01-.216.01-.43.01-.64V5.86c0-.21-.006-.42-.01-.633-.016-.466-.04-.935-.127-1.395-.08-.467-.22-.9-.436-1.32-.216-.42-.49-.796-.82-1.13-.33-.33-.71-.604-1.13-.816-.427-.216-.86-.355-1.32-.437-.46-.09-.93-.11-1.394-.13-.215-.01-.43-.01-.64-.01h-.76z"/><path d="M103.37.985h.753c.207.002.416.004.62.014.378 0 .817.02 1.245.1.395.07.727.18 1.05.34.32.16.616.38.876.63.258.26.473.55.64.87.16.32.27.65.34 1.05.077.42.097.86.106 1.24.006.2.008.41.008.62.002.25.002.49.002.75v26.76c0 .24 0 .5-.002.75 0 .2-.002.41-.008.62-.01.37-.03.81-.105 1.24-.07.38-.18.72-.342 1.05-.166.32-.38.61-.64.87-.26.252-.554.47-.876.63-.322.17-.654.27-1.047.35-.434.07-.893.1-1.244.11H6.62c-.25 0-.497 0-.748-.005-.203 0-.412-.008-.617-.01-.35-.01-.81-.04-1.24-.11-.396-.076-.728-.18-1.052-.35-.322-.16-.616-.377-.874-.63-.26-.26-.47-.558-.64-.876-.16-.33-.27-.667-.34-1.056-.09-.428-.1-.867-.11-1.24-.01-.21-.01-.42-.01-.62V5.874c0-.21 0-.418.01-.626.01-.37.02-.81.1-1.24.07-.39.18-.72.34-1.05.16-.32.38-.61.64-.87.25-.26.55-.47.87-.64.32-.16.65-.27 1.05-.34.42-.08.86-.1 1.24-.11.21-.01.41-.02.62-.02h97.49"/><path d="M30.128 19.784c-.03-3.223 2.64-4.79 2.76-4.864-1.51-2.203-3.852-2.504-4.675-2.528-1.967-.207-3.875 1.177-4.877 1.177-1.022 0-2.565-1.16-4.228-1.13-2.14.03-4.142 1.27-5.24 3.19-2.266 3.92-.576 9.69 1.595 12.86 1.086 1.55 2.355 3.28 4.016 3.22 1.62-.07 2.23-1.04 4.19-1.04 1.94 0 2.51 1.03 4.2.99 1.74-.03 2.84-1.56 3.89-3.13 1.25-1.78 1.76-3.54 1.78-3.63-.04-.01-3.39-1.29-3.42-5.15zm-3.2-9.478c.874-1.093 1.472-2.58 1.306-4.09-1.265.057-2.847.876-3.758 1.945-.806.95-1.526 2.49-1.34 3.94 1.42.11 2.88-.71 3.792-1.79zm22.552 2.786c-.61.23-1.253.345-1.93.345-1.006 0-1.792-.273-2.358-.82-.584-.565-.876-1.342-.876-2.33 0-.98.312-1.77.937-2.367s1.446-.895 2.465-.895c.652 0 1.177.096 1.575.29l-.224.82c-.39-.175-.85-.262-1.37-.262-.71 0-1.27.202-1.68.606-.43.42-.65 1-.65 1.75s.2 1.33.61 1.76c.39.41.92.61 1.6.61.42 0 .72-.05.91-.13v-1.7h-1.14v-.79h2.11v3.11zm5.247-2.2c0 .18-.013.334-.037.458h-3.02c.013.447.16.79.438 1.025.255.21.584.317.988.317.447 0 .854-.072 1.22-.214l.16.7c-.43.186-.936.28-1.52.28-.702 0-1.253-.208-1.654-.62-.4-.414-.6-.968-.6-1.665 0-.683.186-1.252.558-1.706.392-.484.92-.727 1.584-.727.652 0 1.146.242 1.482.727.267.386.4.86.4 1.426zm-.96-.26c.006-.3-.06-.556-.196-.773-.17-.28-.44-.42-.8-.42-.33 0-.59.13-.8.41-.17.21-.26.48-.3.78h2.1zM58.324 9.6h-1.11v2.2c0 .558.197.838.59.838.18 0 .328-.016.446-.046l.027.764c-.198.075-.46.112-.782.112-.397 0-.708-.12-.932-.364-.224-.242-.335-.65-.335-1.22V9.597h-.662v-.755h.662v-.83l.987-.298v1.128h1.11v.755zm4.94-2.108c0 .18-.06.327-.178.44-.117.11-.27.167-.457.167-.17 0-.31-.06-.43-.18s-.17-.26-.17-.44.06-.32.18-.43c.11-.11.26-.17.44-.17s.32.05.43.16c.11.11.17.25.17.43zm-.113 5.882h-1v-4.53h1.01v4.53zM67.08 9.6h-1.11v2.2c0 .558.195.838.586.838.18 0 .33-.016.447-.046l.028.764c-.19.075-.46.112-.78.112-.4 0-.71-.12-.93-.364-.22-.242-.33-.65-.33-1.22V9.597h-.66v-.755H65v-.83l.986-.298v1.128h1.108v.755zm7.96 1.472c0 .696-.2 1.268-.597 1.715-.417.46-.97.69-1.66.69-.664 0-1.193-.22-1.59-.662-.396-.44-.592-.998-.592-1.668 0-.702.21-1.277.61-1.724.41-.445.96-.67 1.65-.67.67 0 1.2.22 1.61.663.39.428.58.98.58 1.658zm-1.045.033c0-.417-.09-.775-.27-1.075-.213-.36-.514-.542-.905-.542-.404 0-.712.18-.923.542-.18.3-.27.664-.27 1.093 0 .42.09.778.27 1.077.22.36.524.542.915.542.385 0 .686-.185.903-.55.186-.307.28-.67.28-1.086zm6.31 2.27H79.3V10.78c0-.8-.306-1.2-.915-1.2-.3 0-.54.11-.73.33-.187.22-.28.48-.28.777v2.687H76.37V10.14c0-.398-.014-.83-.038-1.295h.883l.05.708h.03c.115-.22.29-.4.52-.545.27-.17.576-.254.912-.254.423 0 .774.138 1.054.41.35.336.52.836.52 1.5v2.713zM47.047 19.04c0 .382-.125.69-.375.928-.25.237-.57.355-.964.355-.355 0-.655-.122-.9-.365s-.364-.55-.364-.918.125-.67.375-.908c.25-.237.56-.355.92-.355s.68.118.93.355c.25.236.37.54.37.908zm-.237 12.462h-2.137v-9.6h2.133v9.6zm11.47-11.514h-3.81v11.514h-2.13V19.988h-3.794V18.19h9.736v1.798zm8.887 11.514H65.29l-.117-1.46h-.04c-.672 1.118-1.686 1.677-3.04 1.677-.95 0-1.706-.3-2.272-.89-.67-.73-1-1.82-1-3.28V21.9h2.14v5.293c0 1.844.64 2.765 1.9 2.765.95 0 1.61-.46 1.98-1.38.1-.238.14-.508.14-.81V21.9h2.13v6.834c0 .91.03 1.83.08 2.765zm11.22 0h-2.134v-5.496c0-1.695-.646-2.542-1.936-2.542-.63 0-1.144.233-1.54.7-.394.465-.592 1.014-.592 1.645v5.69h-2.133v-6.86c0-.85-.026-1.76-.08-2.75h1.878l.1 1.5h.058c.25-.47.62-.86 1.108-1.16.58-.36 1.225-.54 1.936-.54.896 0 1.64.29 2.23.87.738.71 1.107 1.77 1.107 3.18v5.75zm10.88-5.254c0 .383-.026.705-.08.97h-6.4c.028.946.338 1.67.93 2.17.54.448 1.238.673 2.095.673.947 0 1.81-.15 2.587-.45l.33 1.48c-.91.4-1.99.59-3.22.59-1.49 0-2.66-.43-3.51-1.31-.85-.87-1.28-2.05-1.28-3.52 0-1.45.39-2.65 1.18-3.61.83-1.03 1.94-1.54 3.35-1.54 1.38 0 2.43.51 3.14 1.54.56.82.84 1.82.84 3.02zm-2.034-.553c.013-.632-.126-1.178-.415-1.64-.37-.592-.934-.888-1.697-.888-.69 0-1.26.29-1.69.87-.35.46-.56 1.013-.63 1.657h4.45zm10.27 3.05c0 .892-.33 1.61-.986 2.146-.657.54-1.565.81-2.724.81-1.094 0-2.02-.21-2.785-.65l.456-1.58c.737.45 1.52.67 2.35.67 1.094 0 1.64-.4 1.64-1.2 0-.35-.118-.65-.355-.88-.24-.23-.66-.45-1.27-.68-1.71-.63-2.57-1.55-2.57-2.76 0-.83.31-1.52.94-2.07s1.47-.83 2.51-.83c.95 0 1.76.2 2.43.58l-.45 1.53c-.62-.37-1.27-.55-1.96-.55-.45 0-.8.11-1.05.32-.25.21-.38.48-.38.81 0 .33.13.6.39.81.222.2.66.42 1.302.65 1.66.63 2.49 1.6 2.49 2.9z" fill="#FFF"/></svg>