<svg width="1175" height="1306" xmlns="http://www.w3.org/2000/svg"><title>Layer 1</title><path fill="#17385e" d="M917 2.1C839.3 11 770.5 59.8 736 130.4c-16.3 33.4-23.2 63.5-23.4 102.8l-.1 21.7-32 19.7C640.8 299 542.3 360 443.7 421.2l-74.8 46.5-11.2-7.5c-12.8-8.5-34.6-19.4-49.3-24.5-41.4-14.5-87.6-17-129.9-7C130.1 440.1 86 467.4 53.8 506c-25.6 30.7-43.4 69.4-50.2 109.5-11 64.2 6.8 131.8 48.1 183 37.7 46.7 90.9 76.3 152.3 84.6 12.2 1.6 42.7 1.6 55 0 33.8-4.5 67.9-16.6 95.3-33.9l9.4-5.9 12.1 7.3c6.6 3.9 20 11.6 29.8 17 37.4 20.4 82.9 47.6 133.8 79.8 13.2 8.3 57.5 35.2 98.5 59.7l74.6 44.6.1 21.4c.2 36.2 5.8 63.6 19.5 94.7 12.1 27.3 28.5 50.9 50.5 72.2 71.3 69.2 177.3 85.2 265.8 40.2 68.3-34.7 115.3-102.3 124.6-179.2 1.5-12.2 1.5-40.8 0-53-6.5-53.7-30.9-102.6-69.7-140-18.7-18-36.4-30.3-59.8-41.6-54.1-26.1-114.7-30.1-171.5-11.4-35.6 11.7-62.7 28-88.7 53.3l-11.2 10.9-3.3-1.9c-1.8-1.1-40.6-25.1-86.3-53.5-79.9-49.6-163.3-101-208.6-128.6L452.3 722l2.4-8.8c10.3-38.3 10.3-82.4-.1-119.7-1.4-4.9-2.2-9.2-1.8-9.6.4-.3 42.1-25.3 92.7-55.5 50.6-30.1 103-61.8 116.5-70.3 41.5-26.2 110.5-68.1 112.3-68.1.2 0 3.9 3.4 8.3 7.6 58.4 56.1 139.6 77.7 217.8 58 42.2-10.7 78.2-31.8 109.7-64.2 62.8-64.8 81.5-161.5 47.4-246.4-11.7-29.1-28.6-54.3-52-77.5-36-35.8-82.2-58.2-133.8-65C958.9.9 929.8.7 917 2.1zM165 515.5c11.6 5.8 210.8 117.9 212.7 119.8 4.1 3.7 7.3 11.6 7.3 17.6 0 6.6-3.2 14.2-7.6 18.2-3.8 3.5-213.5 120.8-218.2 122.1-6.5 1.8-16-1.1-20.9-6.4-1.2-1.2-3.1-4.3-4.2-6.8-2-4.5-2.1-5.9-2.1-127.1V530.4l2.5-5.1c3-6 8.1-10.2 14.5-11.9 5.4-1.5 10-.9 16 2.1z"/></svg>